<svg width="297" height="142" viewBox="0 0 297 142" fill="none" xmlns="http://www.w3.org/2000/svg">
<g clip-path="url(#clip0_2_87)">
<path d="M10.25 130.2L0 94.41H12.71L22.22 128.41C22.69 130.21 23.15 130.47 23.95 130.47C24.82 130.47 25.28 130.2 25.75 128.41L35.26 94.41H47.97L37.72 130.21C35.19 138.86 31.8 141.65 23.95 141.65C16.1 141.65 12.71 138.86 10.24 130.21L10.25 130.2Z" fill="white"/>
<path d="M49.24 124.75V110.31C49.24 99.73 54.63 94.41 65.14 94.41H85.5V105.26H66.07C62.21 105.19 61.41 106.72 61.41 110.32V112.32H81.7V122.77H61.41V124.77C61.41 128.3 62.21 129.89 66.07 129.83H86.17V140.68H65.14C54.63 140.68 49.24 135.29 49.24 124.78V124.75Z" fill="white"/>
<path d="M90.29 124.75V94.41H102.47V124.75C102.47 128.28 103.27 129.87 107.13 129.81H125.56V140.66H106.2C95.69 140.66 90.3 135.27 90.3 124.76L90.29 124.75Z" fill="white"/>
<path d="M132.81 105.25H119.17V94.4H158.56V105.25H144.92V140.65H132.81V105.25Z" fill="white"/>
<path d="M163.21 124.75V94.41H175.39V124.75C175.39 128.28 176.19 129.87 180.05 129.81H198.48V140.66H179.12C168.61 140.66 163.22 135.27 163.22 124.76L163.21 124.75Z" fill="white"/>
<path d="M202.61 140.65V94.41H214.79V140.65H202.61Z" fill="white"/>
<path d="M235.68 117.5C233.28 116.83 231.75 115.3 230.09 112.51L219.38 94.41H233.62L242.54 110.85C243.14 112.05 243.47 112.31 244.54 112.31C245.67 112.31 245.94 112.04 246.6 110.85L255.52 94.41H269.76L259.05 112.51C257.39 115.3 255.86 116.83 253.46 117.5C256.32 118.03 257.98 119.56 259.71 122.56L270.42 140.66H256.11L247.33 124.29C246.6 123.03 245.8 122.76 244.54 122.76C243.34 122.76 242.54 123.03 241.81 124.29L232.96 140.66H218.72L229.43 122.56C231.16 119.57 232.82 118.04 235.68 117.5Z" fill="white"/>
<path d="M160.32 0H106.08C106.08 4.32 102.58 7.83 98.26 7.83V62.07C101.34 62.07 104 63.86 105.27 66.45C105.79 67.49 106.08 68.66 106.08 69.9H160.32C160.32 65.58 163.83 62.07 168.15 62.07V7.83C163.83 7.83 160.32 4.32 160.32 0ZM142.2 20.19C144 18.39 146.93 18.39 148.74 20.19C150.54 21.99 150.54 24.92 148.74 26.72C146.94 28.52 144 28.53 142.2 26.72C140.39 24.91 140.39 21.98 142.2 20.18V20.19ZM149.61 41.04L130.53 51.61C125.17 54.53 122.2 54.24 118.43 50.47C114.66 46.7 114.37 43.73 117.33 38.4L127.89 19.32L129.55 16.33L135.66 22.44L133.98 25.42L123.94 43.3C123.3 44.39 123.4 44.74 123.78 45.12C124.2 45.54 124.55 45.63 125.64 45L143.52 34.96L146.5 33.28L152.61 39.39L149.62 41.05L149.61 41.04Z" fill="white"/>
<path d="M289.05 87.81C289.19 87.62 289.26 87.41 289.26 87.18C289.26 86.95 289.19 86.75 289.05 86.57C288.91 86.39 288.72 86.26 288.46 86.18C288.21 86.1 287.58 86.06 286.59 86.06H285.88V88.31H286.59C287.6 88.31 288.22 88.27 288.46 88.2C288.7 88.13 288.89 88 289.03 87.81H289.05Z" fill="white"/>
<path d="M294.92 84.94C294.19 83.69 293.18 82.73 291.9 82.06C290.62 81.39 289.28 81.05 287.89 81.05C286.5 81.05 285.16 81.39 283.88 82.06C282.6 82.73 281.59 83.69 280.86 84.94C280.13 86.19 279.76 87.5 279.76 88.87C279.76 90.24 280.12 91.53 280.84 92.77C281.56 94.01 282.56 94.97 283.84 95.66C285.12 96.35 286.47 96.7 287.89 96.7C289.31 96.7 290.65 96.35 291.94 95.66C293.22 94.97 294.22 94.01 294.94 92.77C295.66 91.53 296.02 90.24 296.02 88.87C296.02 87.5 295.65 86.19 294.92 84.94ZM289.47 93.01L288.76 91.67C288.28 90.77 287.88 90.2 287.56 89.97C287.24 89.74 286.84 89.62 286.35 89.62H285.89V93.01H284.15V84.74H285.89C287.52 84.74 288.44 84.74 288.64 84.76C289.22 84.81 289.67 84.92 289.99 85.09C290.31 85.26 290.58 85.53 290.79 85.88C291 86.24 291.11 86.63 291.11 87.07C291.11 87.67 290.91 88.18 290.51 88.6C290.11 89.02 289.54 89.29 288.82 89.39C289.08 89.49 289.28 89.59 289.43 89.7C289.57 89.81 289.77 90.02 290.01 90.34C290.07 90.42 290.29 90.76 290.65 91.35L291.65 93.02H289.48L289.47 93.01Z" fill="white"/>
</g>
<defs>
<clipPath id="clip0_2_87">
<rect width="296.02" height="141.65" fill="white"/>
</clipPath>
</defs>
</svg>
