<svg width="2642" height="520" viewBox="0 0 2642 520" fill="none" xmlns="http://www.w3.org/2000/svg">
<g clip-path="url(#clip0_86_3)">
<path d="M696.346 366.739L625.347 120.365H713.386L779.259 354.352C782.515 366.739 785.701 368.528 791.242 368.528C797.269 368.528 800.455 366.67 803.71 354.352L869.584 120.365H957.623L886.624 366.739C869.099 426.268 845.617 445.469 791.242 445.469C736.867 445.469 713.386 426.268 696.277 366.739H696.346Z" fill="white"/>
<path d="M966.42 329.164V229.788C966.42 156.977 1003.75 120.365 1076.56 120.365H1217.58V195.034H1083C1056.26 194.553 1050.72 205.082 1050.72 229.857V243.621H1191.26V315.537H1050.72V329.301C1050.72 353.594 1056.26 364.537 1083 364.124H1222.22V438.793H1076.56C1003.75 438.793 966.42 401.699 966.42 329.37V329.164Z" fill="white"/>
<path d="M1250.76 329.164V120.365H1335.13V329.164C1335.13 353.457 1340.67 364.399 1367.41 363.986H1495.07V438.655H1360.97C1288.17 438.655 1250.83 401.562 1250.83 329.232L1250.76 329.164Z" fill="white"/>
<path d="M1545.29 195.034H1450.81V120.365H1723.65V195.034H1629.17V438.655H1545.29V195.034Z" fill="white"/>
<path d="M1749 329.164V120.365H1833.37V329.164C1833.37 353.457 1838.91 364.399 1865.65 363.986H1993.31V438.655H1859.21C1786.41 438.655 1749.07 401.562 1749.07 329.232L1749 329.164Z" fill="white"/>
<path d="M2021.85 438.655V120.365H2106.22V438.587H2021.85V438.655Z" fill="white"/>
<path d="M2250.92 279.269C2234.29 274.659 2223.69 264.129 2212.2 244.929L2138.01 120.365H2236.65L2298.43 233.505C2302.59 241.763 2304.88 243.552 2312.29 243.552C2320.11 243.552 2321.98 241.694 2326.56 233.505L2388.34 120.365H2486.98L2412.79 244.929C2401.3 264.129 2390.7 274.659 2374.07 279.269C2393.88 282.917 2405.38 293.446 2417.37 314.092L2491.55 438.655H2392.43L2331.61 325.998C2326.56 317.327 2321.01 315.469 2312.29 315.469C2303.97 315.469 2298.43 317.327 2293.38 325.998L2232.08 438.655H2133.44L2207.62 314.092C2219.61 293.515 2231.11 282.986 2250.92 279.269Z" fill="white"/>
<path d="M429.943 39.0206H54.1672C54.1672 68.7507 29.9235 92.9063 0 92.9063V466.183C21.3344 466.183 39.7595 478.502 48.5565 496.326C52.1584 503.483 54.1672 511.535 54.1672 520.069H429.874C429.874 490.339 454.187 466.183 484.11 466.183V92.9063C454.187 92.9063 429.874 68.7507 429.874 39.0206H429.943ZM304.431 177.967C316.899 165.58 337.194 165.58 349.731 177.967C362.269 190.355 362.2 210.519 349.731 222.906C337.194 235.363 316.899 235.363 304.431 222.906C291.893 210.45 291.893 190.286 304.431 177.898V177.967ZM355.758 321.456L223.595 394.198C186.468 414.293 165.896 412.298 139.782 386.353C113.668 360.408 111.659 339.968 132.162 303.287L205.309 171.98L216.807 151.403L259.13 193.452L247.493 213.96L177.948 337.009C173.515 344.51 174.208 346.919 176.84 349.534C179.749 352.425 182.173 353.044 189.724 348.708L313.574 279.614L334.216 268.052L376.538 310.101L355.827 321.525L355.758 321.456Z" fill="white"/>
<path d="M2593.72 46.522C2594.69 45.2144 2595.18 43.7692 2595.18 42.1863C2595.18 40.6035 2594.69 39.2271 2593.72 37.9884C2592.75 36.7496 2591.43 35.855 2589.63 35.3044C2587.9 34.7538 2583.54 34.4786 2576.68 34.4786H2571.76V49.9629H2576.68C2583.68 49.9629 2587.97 49.6877 2589.63 49.2059C2591.3 48.7242 2592.61 47.8295 2593.58 46.522H2593.72Z" fill="white"/>
<path d="M2634.38 26.7708C2629.32 18.1683 2622.33 11.5617 2613.46 6.95077C2604.6 2.33986 2595.31 0 2585.69 0C2576.06 0 2566.78 2.33986 2557.91 6.95077C2549.04 11.5617 2542.05 18.1683 2536.99 26.7708C2531.93 35.3732 2529.37 44.3886 2529.37 53.8168C2529.37 63.2451 2531.86 72.1228 2536.85 80.6564C2541.84 89.1901 2548.77 95.7967 2557.63 100.545C2566.5 105.294 2575.85 107.702 2585.69 107.702C2595.52 107.702 2604.8 105.294 2613.74 100.545C2622.61 95.7967 2629.53 89.1901 2634.52 80.6564C2639.51 72.1228 2642 63.2451 2642 53.8168C2642 44.3886 2639.44 35.3732 2634.38 26.7708ZM2596.63 82.3081L2591.71 73.0863C2588.39 66.8925 2585.62 62.9698 2583.4 61.387C2581.18 59.8041 2578.41 58.9783 2575.02 58.9783H2571.83V82.3081H2559.78V25.3944H2571.83C2583.12 25.3944 2589.5 25.3944 2590.88 25.532C2594.9 25.8761 2598.02 26.6331 2600.23 27.8031C2602.45 28.973 2604.32 30.8311 2605.77 33.2398C2607.23 35.7173 2607.99 38.4013 2607.99 41.4293C2607.99 45.5585 2606.6 49.0683 2603.83 51.9587C2601.06 54.8491 2597.11 56.7073 2592.13 57.3955C2593.93 58.0836 2595.31 58.7718 2596.35 59.5289C2597.32 60.2859 2598.71 61.7311 2600.37 63.9333C2600.79 64.4839 2602.31 66.8237 2604.8 70.8841L2611.73 82.3769H2596.7L2596.63 82.3081Z" fill="white"/>
</g>
<defs>
<clipPath id="clip0_86_3">
<rect width="2642" height="520" fill="white"/>
</clipPath>
</defs>
</svg>
