<svg width="485" height="481" viewBox="0 0 485 481" fill="none" xmlns="http://www.w3.org/2000/svg">
<path d="M429.943 0H54.1672C54.1672 29.73 29.9235 53.8857 0 53.8857V427.163C21.3344 427.163 39.7595 439.481 48.5565 457.305C52.1584 464.463 54.1672 472.515 54.1672 481.048H429.874C429.874 451.318 454.187 427.163 484.11 427.163V53.8857C454.187 53.8857 429.874 29.73 429.874 0H429.943ZM304.431 138.947C316.899 126.559 337.194 126.559 349.731 138.947C362.269 151.334 362.2 171.498 349.731 183.886C337.194 196.342 316.899 196.342 304.431 183.886C291.893 171.429 291.893 151.265 304.431 138.878V138.947ZM355.758 282.435L223.595 355.177C186.468 375.273 165.896 373.277 139.782 347.332C113.668 321.387 111.659 300.948 132.162 264.267L205.309 132.959L216.807 112.382L259.13 154.431L247.493 174.939L177.948 297.988C173.515 305.49 174.208 307.898 176.84 310.514C179.749 313.404 182.173 314.023 189.724 309.688L313.574 240.593L334.216 229.031L376.538 271.08L355.827 282.504L355.758 282.435Z" fill="white"/>
</svg>


